<svg width="34" height="34" viewBox="0 0 34 34" fill="none" xmlns="http://www.w3.org/2000/svg">
<path d="M6.80001 28.9C5.85969 28.9 5.10001 28.1403 5.10001 27.2V22.1C5.10001 21.1597 5.85969 20.4 6.80001 20.4C7.74032 20.4 8.50001 21.1597 8.50001 22.1V25.5H11.9C12.8403 25.5 13.6 26.2597 13.6 27.2C13.6 28.1403 12.8403 28.9 11.9 28.9H6.80001ZM8.50001 11.9C8.50001 12.8403 7.74032 13.6 6.80001 13.6C5.85969 13.6 5.10001 12.8403 5.10001 11.9V6.80003C5.10001 5.85971 5.85969 5.10003 6.80001 5.10003H11.9C12.8403 5.10003 13.6 5.85971 13.6 6.80003C13.6 7.74034 12.8403 8.50002 11.9 8.50002H8.50001V11.9ZM22.1 28.9C21.1597 28.9 20.4 28.1403 20.4 27.2C20.4 26.2597 21.1597 25.5 22.1 25.5H25.5V22.1C25.5 21.1597 26.2597 20.4 27.2 20.4C28.1403 20.4 28.9 21.1597 28.9 22.1V27.2C28.9 28.1403 28.1403 28.9 27.2 28.9H22.1ZM28.9 11.9C28.9 12.8403 28.1403 13.6 27.2 13.6C26.2597 13.6 25.5 12.8403 25.5 11.9V8.50002H22.1C21.1597 8.50002 20.4 7.74034 20.4 6.80003C20.4 5.85971 21.1597 5.10003 22.1 5.10003H27.2C28.1403 5.10003 28.9 5.85971 28.9 6.80003V11.9Z" fill="#5DB6FF"/>
</svg>
