<svg width="32" height="26" viewBox="0 0 32 26" fill="none" xmlns="http://www.w3.org/2000/svg">
<path d="M5.01994 16.9487C5.22494 16.3556 5.60994 15.8153 6.14994 15.3766L15.2099 8.01531L16.9049 6.63812C17.7349 7.3125 19.4699 8.72219 22.1049 10.8631L23.7999 12.2403L22.1049 13.6175L13.0449 20.9788C12.5099 21.4134 11.8399 21.7303 11.1099 21.8969L4.71994 23.3431C4.30494 23.4366 3.85494 23.3431 3.54994 23.0912C3.24494 22.8394 3.12994 22.4778 3.24494 22.1406L5.01994 16.9487ZM7.79994 16.7984C7.57994 16.9894 7.41994 17.2209 7.33494 17.4728L6.12994 21.0031L10.4749 20.0241C10.7949 19.9509 11.0849 19.8169 11.3249 19.63L7.79494 16.7984H7.79994ZM25.4999 10.8631C24.6699 10.1887 22.9349 8.77906 20.2999 6.63812L18.5999 5.26094C19.9249 4.18437 20.6699 3.57906 20.8449 3.43687C21.5199 2.88437 22.4399 2.57562 23.3999 2.57562C24.3599 2.57562 25.2799 2.88437 25.9549 3.43687L27.7399 4.88719C28.4199 5.43969 28.7999 6.18719 28.7999 6.96312C28.7999 7.73906 28.4199 8.49062 27.7399 9.03906C27.5649 9.18125 26.8199 9.78656 25.4949 10.8631H25.4999Z" fill="#5DB6FF"/>
</svg>
