<svg width="27" height="34" viewBox="0 0 27 34" fill="none" xmlns="http://www.w3.org/2000/svg">
<path d="M1.16712 6.98905C0.4387 6.27451 0.427436 5.10282 1.14198 4.3744L4.80047 0.644896C5.32638 0.108779 6.11562 -0.0546621 6.81102 0.227273C7.50642 0.509208 7.95734 1.18024 7.9645 1.92481L7.98226 3.77181L20.9112 3.64753C23.9703 3.61812 26.4761 6.07617 26.5055 9.13525L26.5765 16.5232C26.5863 17.5449 25.7689 18.3782 24.7473 18.388C23.7256 18.3978 22.8923 17.5804 22.8825 16.5588L22.8115 9.17076C22.8017 8.14914 21.9684 7.3317 20.9467 7.34152L8.01777 7.46581L8.03552 9.3128C8.04268 10.0574 7.59896 10.737 6.90912 11.0323C6.21927 11.3275 5.42697 11.1735 4.89091 10.6534L1.1614 6.99488L1.16712 6.98905ZM26.1279 26.306C26.8564 27.0205 26.8676 28.1922 26.1531 28.9207L22.4946 32.6502C21.9687 33.1863 21.1794 33.3497 20.484 33.0678C19.7886 32.7858 19.3377 32.1148 19.3306 31.3702L19.3128 29.5232L6.38383 29.6475C3.32474 29.6769 0.818978 27.2189 0.789572 24.1598L0.718553 16.7718C0.708732 15.7502 1.52617 14.9169 2.54779 14.9071C3.56942 14.8972 4.40273 15.7147 4.41255 16.7363L4.48357 24.1243C4.49339 25.1459 5.3267 25.9634 6.34832 25.9535L19.2773 25.8292L19.2595 23.9822C19.2524 23.2377 19.6961 22.558 20.3859 22.2628C21.0758 21.9675 21.8681 22.1216 22.4042 22.6417L26.1337 26.3002L26.1279 26.306Z" fill="#878686"/>
</svg>
